<?xml version="1.0" encoding="UTF-8" standalone="no"?>
<!-- Created with Inkscape (http://www.inkscape.org/) -->

<svg
   width="210mm"
   height="297mm"
   viewBox="0 0 210 297"
   version="1.1"
   id="svg1"
   sodipodi:docname="levágás_a4.svg"
   inkscape:version="1.3.2 (091e20ef0f, 2023-11-25)"
   inkscape:export-filename="levágás_a4.pdf"
   inkscape:export-xdpi="300"
   inkscape:export-ydpi="300"
   xmlns:inkscape="http://www.inkscape.org/namespaces/inkscape"
   xmlns:sodipodi="http://sodipodi.sourceforge.net/DTD/sodipodi-0.dtd"
   xmlns="http://www.w3.org/2000/svg"
   xmlns:svg="http://www.w3.org/2000/svg">
  <sodipodi:namedview
     id="namedview1"
     pagecolor="#ffffff"
     bordercolor="#000000"
     borderopacity="0.25"
     inkscape:showpageshadow="2"
     inkscape:pageopacity="0.0"
     inkscape:pagecheckerboard="0"
     inkscape:deskcolor="#d1d1d1"
     inkscape:document-units="mm"
     inkscape:zoom="0.86060787"
     inkscape:cx="537.99182"
     inkscape:cy="635.01627"
     inkscape:window-width="2560"
     inkscape:window-height="1403"
     inkscape:window-x="1920"
     inkscape:window-y="0"
     inkscape:window-maximized="1"
     inkscape:current-layer="layer1" />
  <defs
     id="defs1" />
  <g
     inkscape:label="Réteg 1"
     inkscape:groupmode="layer"
     id="layer1">
    <path
       style="fill:none;fill-opacity:1;stroke:#000000;stroke-width:0.399999;stroke-dasharray:0.8, 1.60001;stroke-dashoffset:0;stroke-opacity:1"
       d="m 210,8.309083 c -9.8,0 -9.8,0 -9.8,0 V 0"
       id="path2-2" />
    <path
       style="fill:none;fill-opacity:1;stroke:#000000;stroke-width:0.399999;stroke-dasharray:0.8, 1.60001;stroke-dashoffset:0;stroke-opacity:1"
       d="m 210,288.7 c -9.8,0 -9.8,0 -9.8,0 v 8.30908"
       id="path2-2-6" />
    <path
       style="fill:none;fill-opacity:1;stroke:#000000;stroke-width:0.4;stroke-dasharray:0.799999, 1.6;stroke-dashoffset:0;stroke-opacity:1"
       d="m 100.2,8.5 c 0,0.384428 0,0.399999 0,0.399999"
       id="path3" />
    <path
       style="fill:none;fill-opacity:1;stroke:#000000;stroke-width:0.399999;stroke-dasharray:0.799999, 1.59999;stroke-dashoffset:0;stroke-opacity:1"
       d="m 100.2,46.996889 c 0,0.498852 0,0.519059 0,0.519059"
       id="path3-3" />
    <path
       style="fill:none;fill-opacity:1;stroke:#000000;stroke-width:0.399999;stroke-dasharray:0.799999, 1.59999;stroke-dashoffset:0;stroke-opacity:1"
       d="m 100.2,59.01365 c 0,0.498852 0,0.519058 0,0.519058"
       id="path3-2" />
    <path
       style="fill:none;fill-opacity:1;stroke:#000000;stroke-width:0.399999;stroke-dasharray:0.799999, 1.59999;stroke-dashoffset:0;stroke-opacity:1"
       d="m 100.2,72.747091 c 0,0.498852 0,0.519058 0,0.519058"
       id="path3-7" />
    <path
       style="fill:none;fill-opacity:1;stroke:#000000;stroke-width:0.399999;stroke-dasharray:0.799999, 1.59999;stroke-dashoffset:0;stroke-opacity:1"
       d="m 100.2,85.79386 c 0,0.49885 0,0.51905 0,0.51905"
       id="path3-29" />
    <path
       style="fill:none;fill-opacity:1;stroke:#000000;stroke-width:0.399999;stroke-dasharray:0.799999, 1.59999;stroke-dashoffset:0;stroke-opacity:1"
       d="m 100.2,100.21397 c 0,0.49886 0,0.51906 0,0.51906"
       id="path3-4" />
    <path
       style="fill:none;fill-opacity:1;stroke:#000000;stroke-width:0.399999;stroke-dasharray:0.799999, 1.59999;stroke-dashoffset:0;stroke-opacity:1"
       d="m 100.2,112.57406 c 0,0.49886 0,0.51907 0,0.51907"
       id="path3-5" />
    <path
       style="fill:none;fill-opacity:1;stroke:#000000;stroke-width:0.399999;stroke-dasharray:0.799999, 1.59999;stroke-dashoffset:0;stroke-opacity:1"
       d="m 100.2,126.99418 c 0,0.49886 0,0.51906 0,0.51906"
       id="path3-1" />
    <path
       style="fill:none;fill-opacity:1;stroke:#000000;stroke-width:0.399999;stroke-dasharray:0.799999, 1.59999;stroke-dashoffset:0;stroke-opacity:1"
       d="m 100.2,137.98094 c 0,0.49885 0,0.51906 0,0.51906"
       id="path3-20" />
    <path
       style="fill:none;fill-opacity:1;stroke:#000000;stroke-width:0.399999;stroke-dasharray:0.799999, 1.59999;stroke-dashoffset:0;stroke-opacity:1"
       d="m 100.2,34.636793 c 0,0.498852 0,0.519058 0,0.519058"
       id="path3-54" />
    <path
       style="fill:none;fill-opacity:1;stroke:#000000;stroke-width:0.399999;stroke-dasharray:0.799999, 1.59999;stroke-dashoffset:0;stroke-opacity:1"
       d="m 100.2,18.5 c 0,0.498852 0,0.519057 0,0.519057"
       id="path3-69" />
    <g
       id="g3"
       transform="translate(-4.7750005,59.545833)">
      <path
         style="fill:none;fill-opacity:1;stroke:#000000;stroke-width:0.399999;stroke-dasharray:0.799999, 1.59999;stroke-dashoffset:0;stroke-opacity:1"
         d="m 104.975,127.45106 c 0,0.49885 0,0.51905 0,0.51905"
         id="path3-3-5" />
      <path
         style="fill:none;fill-opacity:1;stroke:#000000;stroke-width:0.399999;stroke-dasharray:0.799999, 1.59999;stroke-dashoffset:0;stroke-opacity:1"
         d="m 104.975,139.46782 c 0,0.49885 0,0.51905 0,0.51905"
         id="path3-2-2" />
      <path
         style="fill:none;fill-opacity:1;stroke:#000000;stroke-width:0.399999;stroke-dasharray:0.799999, 1.59999;stroke-dashoffset:0;stroke-opacity:1"
         d="m 104.975,153.20126 c 0,0.49885 0,0.51906 0,0.51906"
         id="path3-7-5" />
      <path
         style="fill:none;fill-opacity:1;stroke:#000000;stroke-width:0.399999;stroke-dasharray:0.799999, 1.59999;stroke-dashoffset:0;stroke-opacity:1"
         d="m 104.975,166.24803 c 0,0.49885 0,0.51905 0,0.51905"
         id="path3-29-4" />
      <path
         style="fill:none;fill-opacity:1;stroke:#000000;stroke-width:0.399999;stroke-dasharray:0.799999, 1.59999;stroke-dashoffset:0;stroke-opacity:1"
         d="m 104.975,180.66814 c 0,0.49886 0,0.51906 0,0.51906"
         id="path3-4-7" />
      <path
         style="fill:none;fill-opacity:1;stroke:#000000;stroke-width:0.399999;stroke-dasharray:0.799999, 1.59999;stroke-dashoffset:0;stroke-opacity:1"
         d="m 104.975,193.02823 c 0,0.49886 0,0.51907 0,0.51907"
         id="path3-5-4" />
      <path
         style="fill:none;fill-opacity:1;stroke:#000000;stroke-width:0.399999;stroke-dasharray:0.799999, 1.59999;stroke-dashoffset:0;stroke-opacity:1"
         d="m 104.975,207.44835 c 0,0.49886 0,0.51906 0,0.51906"
         id="path3-1-4" />
      <path
         style="fill:none;fill-opacity:1;stroke:#000000;stroke-width:0.399999;stroke-dasharray:0.799999, 1.59999;stroke-dashoffset:0;stroke-opacity:1"
         d="m 104.975,218.43511 c 0,0.49885 0,0.51906 0,0.51906"
         id="path3-20-3" />
      <path
         style="fill:none;fill-opacity:1;stroke:#000000;stroke-width:0.399999;stroke-dasharray:0.799999, 1.59999;stroke-dashoffset:0;stroke-opacity:1"
         d="m 104.975,115.09096 c 0,0.49885 0,0.51906 0,0.51906"
         id="path3-54-0" />
      <path
         style="fill:none;fill-opacity:1;stroke:#000000;stroke-width:0.399999;stroke-dasharray:0.799999, 1.59999;stroke-dashoffset:0;stroke-opacity:1"
         d="m 104.975,98.954167 c 0,0.498852 0,0.519057 0,0.519057"
         id="path3-69-7" />
    </g>
    <path
       style="fill:none;fill-opacity:1;stroke:#000000;stroke-width:0.4;stroke-dasharray:0.799999, 1.6;stroke-dashoffset:0;stroke-opacity:1"
       d="m 100.2,148.5 c 0,0.38443 0,0.4 0,0.4"
       id="path3-6" />
    <path
       style="fill:none;fill-opacity:1;stroke:#000000;stroke-width:0.4;stroke-dasharray:0.799999, 1.6;stroke-dashoffset:0;stroke-opacity:1"
       d="m 100.2,288.5 c 0,0.38443 0,0.4 0,0.4"
       id="path3-6-9" />
    <path
       style="fill:none;fill-opacity:1;stroke:#000000;stroke-width:0.399999;stroke-dasharray:0.799998, 1.6;stroke-dashoffset:0;stroke-opacity:1"
       d="m 200,148.7 c 9.84,0 9.84,0 9.84,0"
       id="path4-8" />
    <path
       style="fill:none;fill-opacity:1;stroke:#000000;stroke-width:0.399999;stroke-dasharray:0.799998, 1.6;stroke-dashoffset:0;stroke-opacity:1"
       d="m 200.3936,143.5 c 0,0 0,0 0,5.26496 0,4.73504 0,4.73504 0,4.73504"
       id="path5-4" />
  </g>
</svg>
